<svg width="340" height="254" viewBox="0 0 340 254" fill="none" xmlns="http://www.w3.org/2000/svg">
<g clip-path="url(#clip0_2313_17117)">
<path d="M265.399 65.0291C265.265 18.7122 251.926 8.06889 211.76 8.01058L139.019 8C92.7016 8.1347 82.0583 21.4734 82 61.6395L82 134.383C82.1347 180.699 95.4734 191.343 135.639 191.401H208.382C254.699 191.266 265.343 177.928 265.401 137.762L265.399 65.0291Z" fill="#7ACFA1"/>
<path fill-rule="evenodd" clip-rule="evenodd" d="M265.39 75.1908L265.401 112.767C242.437 157.763 207.207 162.88 207.207 162.88C192.091 165.984 179.387 162.234 169.105 155.613C166.753 156.794 164.176 157.793 161.369 158.55L161.339 158.57H161.324C146.699 162.189 135.391 158.358 126.87 151.914C122.662 148.729 119.154 144.919 116.237 141.088C113.32 137.263 110.998 133.417 109.172 130.167V130.152C105.86 124.111 103.168 117.939 101.021 111.429L100.206 108.941L111.704 106.084L112.299 108.471V108.492C113.945 115.855 117.343 126.342 123.202 135.29C129.051 144.237 137.187 151.394 148.3 152.802C152.928 153.352 158.137 152.625 162.75 150.929C151.667 141.669 144.057 129.425 139.779 120.927V120.896L139.764 120.881C130.492 101.497 122.787 73.4168 135.251 50.0454L135.266 50.0252V49.9949C141.285 39.3161 152.323 32.1144 168.484 30.7215C182.574 29.3336 194.603 33.694 202.613 39.9166L202.628 39.9318H202.643C220.486 54.214 226.606 76.5357 223.804 96.9093V96.9547C222.182 107.215 216.113 124.772 196.239 128.295L196.109 128.325H195.999C194.027 128.492 192.186 128.376 190.455 128.083C187.958 136.874 183.375 145.287 175.819 151.333C176.795 151.914 177.786 152.443 178.812 152.963C186.662 156.839 196.094 158.732 207.207 156.163C246.866 141.715 260.844 105.173 265.39 75.1908ZM184.065 118.378C184.225 116.94 184.32 115.501 184.385 114.063C184.866 101.805 181.824 89.8641 177.24 82.7583C176.25 81.3805 174.919 79.705 173.318 78.7512C172.532 78.2818 171.756 78.0396 171.031 78.0396C170.305 78.0396 169.395 78.2516 168.289 78.9783C167.488 79.6041 166.863 80.5932 166.528 81.7035V81.7237C165.742 84.2723 165.857 87.053 166.398 89.9953C168.164 98.8119 172.742 107.295 179.597 114.517C180.893 115.744 182.384 117.116 184.065 118.378ZM170.916 146.261V146.241C177.085 140.881 180.908 133.483 182.849 125.388C179.558 123.583 176.877 121.277 174.714 119.416L174.634 119.347C174.593 119.312 174.555 119.278 174.517 119.243C174.466 119.197 174.416 119.151 174.358 119.105L174.313 119.054L174.263 119.024C169.475 114.416 164.541 108.264 161.179 101.593C157.817 94.9512 155.86 87.5073 157.496 80.4923C158.327 76.6517 161.514 73.3865 165.232 71.6101C169.01 69.7983 173.813 69.2835 178.206 71.5293L178.236 71.5445L178.286 71.5798C185.491 75.602 187.988 82.3545 189.974 87.7495L190.054 87.9413V87.9766C192.746 95.6779 194.267 108.991 191.851 122.092C193.962 122.511 196.224 122.431 198.611 121.638C208.698 118.035 213.726 110.152 215.953 101.477C218.195 92.7407 217.494 83.4345 216.208 77.7469V77.7166C212.736 61.6125 201.157 39.8359 175.304 38.0897C166.398 37.7819 159.643 39.3665 154.514 42.0312C149.406 44.6959 145.773 48.5263 143.206 52.9019C138.052 61.7538 137.232 72.902 137.637 81.2392C138.773 100.265 145.353 118.474 157.191 134.351C160.473 138.555 164.656 143.188 169.765 147.195C170.165 146.887 170.546 146.579 170.916 146.261Z" fill="#02403D"/>
</g>
<path d="M53.1434 241.4C52.31 241.4 51.5934 241.2 50.9934 240.8C50.3934 240.367 49.91 239.7 49.5434 238.8L42.2934 220.3C41.9934 219.5 41.8934 218.8 41.9934 218.2C42.1267 217.567 42.4434 217.067 42.9434 216.7C43.4434 216.333 44.11 216.15 44.9434 216.15C45.6767 216.15 46.2767 216.333 46.7434 216.7C47.21 217.033 47.61 217.683 47.9434 218.65L53.9934 235.3H52.8434L59.0934 218.25C59.36 217.517 59.71 216.983 60.1434 216.65C60.61 216.317 61.21 216.15 61.9434 216.15C62.6767 216.15 63.2767 216.333 63.7434 216.7C64.21 217.033 64.56 217.55 64.7934 218.25L70.9434 235.3H69.8934L75.9934 218.5C76.3267 217.6 76.7434 216.983 77.2434 216.65C77.7767 216.317 78.36 216.15 78.9934 216.15C79.7934 216.15 80.41 216.35 80.8434 216.75C81.2767 217.15 81.5267 217.667 81.5934 218.3C81.66 218.9 81.5434 219.567 81.2434 220.3L74.0434 238.8C73.71 239.667 73.2267 240.317 72.5934 240.75C71.9934 241.183 71.2767 241.4 70.4434 241.4C69.61 241.4 68.8767 241.183 68.2434 240.75C67.6434 240.317 67.1767 239.667 66.8434 238.8L60.2934 221.45H63.1434L56.7434 238.75C56.41 239.65 55.9434 240.317 55.3434 240.75C54.7434 241.183 54.01 241.4 53.1434 241.4ZM93.882 241.5C92.1154 241.5 90.532 241.167 89.132 240.5C87.7654 239.8 86.682 238.867 85.882 237.7C85.1154 236.533 84.732 235.217 84.732 233.75C84.732 231.95 85.1987 230.533 86.132 229.5C87.0654 228.433 88.582 227.667 90.682 227.2C92.782 226.733 95.5987 226.5 99.132 226.5H101.632V230.1H99.182C97.1154 230.1 95.4654 230.2 94.232 230.4C92.9987 230.6 92.1154 230.95 91.582 231.45C91.082 231.917 90.832 232.583 90.832 233.45C90.832 234.55 91.2154 235.45 91.982 236.15C92.7487 236.85 93.8154 237.2 95.182 237.2C96.282 237.2 97.2487 236.95 98.082 236.45C98.9487 235.917 99.632 235.2 100.132 234.3C100.632 233.4 100.882 232.367 100.882 231.2V225.45C100.882 223.783 100.515 222.583 99.782 221.85C99.0487 221.117 97.8154 220.75 96.082 220.75C95.1154 220.75 94.0654 220.867 92.932 221.1C91.832 221.333 90.6654 221.733 89.432 222.3C88.7987 222.6 88.232 222.683 87.732 222.55C87.2654 222.417 86.8987 222.15 86.632 221.75C86.3654 221.317 86.232 220.85 86.232 220.35C86.232 219.85 86.3654 219.367 86.632 218.9C86.8987 218.4 87.3487 218.033 87.982 217.8C89.5154 217.167 90.982 216.717 92.382 216.45C93.8154 216.183 95.1154 216.05 96.282 216.05C98.682 216.05 100.649 216.417 102.182 217.15C103.749 217.883 104.915 219 105.682 220.5C106.449 221.967 106.832 223.867 106.832 226.2V238.2C106.832 239.233 106.582 240.033 106.082 240.6C105.582 241.133 104.865 241.4 103.932 241.4C102.999 241.4 102.265 241.133 101.732 240.6C101.232 240.033 100.982 239.233 100.982 238.2V235.8H101.382C101.149 236.967 100.682 237.983 99.982 238.85C99.3154 239.683 98.4654 240.333 97.432 240.8C96.3987 241.267 95.2154 241.5 93.882 241.5ZM122.832 241.4C121.998 241.4 121.265 241.183 120.632 240.75C120.032 240.317 119.532 239.65 119.132 238.75L111.182 220.3C110.882 219.567 110.765 218.883 110.832 218.25C110.932 217.617 111.232 217.117 111.732 216.75C112.265 216.35 112.982 216.15 113.882 216.15C114.648 216.15 115.265 216.333 115.732 216.7C116.198 217.033 116.615 217.683 116.982 218.65L123.732 235.5H122.232L129.182 218.6C129.548 217.667 129.965 217.033 130.432 216.7C130.932 216.333 131.598 216.15 132.432 216.15C133.165 216.15 133.748 216.35 134.182 216.75C134.615 217.117 134.882 217.617 134.982 218.25C135.082 218.85 134.965 219.517 134.632 220.25L126.532 238.75C126.165 239.65 125.665 240.317 125.032 240.75C124.432 241.183 123.698 241.4 122.832 241.4ZM147.501 250.4C146.767 250.4 146.167 250.2 145.701 249.8C145.234 249.433 144.951 248.933 144.851 248.3C144.784 247.667 144.901 247 145.201 246.3L148.601 238.75V241.35L139.501 220.3C139.201 219.567 139.101 218.883 139.201 218.25C139.301 217.617 139.601 217.117 140.101 216.75C140.634 216.35 141.351 216.15 142.251 216.15C143.017 216.15 143.634 216.333 144.101 216.7C144.567 217.033 144.984 217.683 145.351 218.65L152.101 235.5H150.601L157.501 218.6C157.867 217.667 158.301 217.033 158.801 216.7C159.301 216.333 159.967 216.15 160.801 216.15C161.534 216.15 162.117 216.35 162.551 216.75C162.984 217.117 163.251 217.617 163.351 218.25C163.451 218.85 163.334 219.517 163.001 220.25L150.851 248C150.417 248.933 149.951 249.567 149.451 249.9C148.951 250.233 148.301 250.4 147.501 250.4ZM190.143 241.5C188.71 241.5 187.193 241.35 185.593 241.05C183.993 240.75 182.56 240.233 181.293 239.5C180.76 239.167 180.377 238.783 180.143 238.35C179.943 237.883 179.86 237.433 179.893 237C179.96 236.533 180.127 236.133 180.393 235.8C180.693 235.467 181.06 235.25 181.493 235.15C181.96 235.05 182.46 235.133 182.993 235.4C184.327 236.033 185.577 236.483 186.743 236.75C187.91 236.983 189.06 237.1 190.193 237.1C191.793 237.1 192.977 236.833 193.743 236.3C194.543 235.733 194.943 235 194.943 234.1C194.943 233.333 194.677 232.75 194.143 232.35C193.643 231.917 192.877 231.6 191.843 231.4L186.843 230.45C184.777 230.05 183.193 229.3 182.093 228.2C181.027 227.067 180.493 225.617 180.493 223.85C180.493 222.25 180.927 220.867 181.793 219.7C182.693 218.533 183.927 217.633 185.493 217C187.06 216.367 188.86 216.05 190.893 216.05C192.36 216.05 193.727 216.217 194.993 216.55C196.293 216.85 197.543 217.333 198.743 218C199.243 218.267 199.577 218.617 199.743 219.05C199.943 219.483 199.993 219.933 199.893 220.4C199.793 220.833 199.593 221.233 199.293 221.6C198.993 221.933 198.61 222.15 198.143 222.25C197.71 222.317 197.21 222.217 196.643 221.95C195.61 221.417 194.61 221.033 193.643 220.8C192.71 220.567 191.81 220.45 190.943 220.45C189.31 220.45 188.093 220.733 187.293 221.3C186.527 221.867 186.143 222.617 186.143 223.55C186.143 224.25 186.377 224.833 186.843 225.3C187.31 225.767 188.027 226.083 188.993 226.25L193.993 227.2C196.16 227.6 197.793 228.333 198.893 229.4C200.027 230.467 200.593 231.9 200.593 233.7C200.593 236.133 199.643 238.05 197.743 239.45C195.843 240.817 193.31 241.5 190.143 241.5ZM216.563 241.5C214.397 241.5 212.58 241.133 211.113 240.4C209.68 239.667 208.613 238.6 207.913 237.2C207.213 235.767 206.863 234 206.863 231.9V221.25H204.263C203.463 221.25 202.847 221.05 202.413 220.65C201.98 220.217 201.763 219.633 201.763 218.9C201.763 218.133 201.98 217.55 202.413 217.15C202.847 216.75 203.463 216.55 204.263 216.55H206.863V212C206.863 210.967 207.13 210.183 207.663 209.65C208.23 209.117 209.013 208.85 210.013 208.85C211.013 208.85 211.78 209.117 212.313 209.65C212.847 210.183 213.113 210.967 213.113 212V216.55H218.413C219.213 216.55 219.83 216.75 220.263 217.15C220.697 217.55 220.913 218.133 220.913 218.9C220.913 219.633 220.697 220.217 220.263 220.65C219.83 221.05 219.213 221.25 218.413 221.25H213.113V231.55C213.113 233.15 213.463 234.35 214.163 235.15C214.863 235.95 215.997 236.35 217.563 236.35C218.13 236.35 218.63 236.3 219.063 236.2C219.497 236.1 219.88 236.033 220.213 236C220.613 235.967 220.947 236.1 221.213 236.4C221.48 236.667 221.613 237.233 221.613 238.1C221.613 238.767 221.497 239.367 221.263 239.9C221.063 240.4 220.68 240.75 220.113 240.95C219.68 241.083 219.113 241.2 218.413 241.3C217.713 241.433 217.097 241.5 216.563 241.5ZM233.403 241.5C231.369 241.5 229.686 241.133 228.353 240.4C227.019 239.633 226.019 238.5 225.353 237C224.719 235.5 224.403 233.633 224.403 231.4V219.3C224.403 218.233 224.669 217.45 225.203 216.95C225.736 216.417 226.503 216.15 227.503 216.15C228.503 216.15 229.269 216.417 229.803 216.95C230.369 217.45 230.653 218.233 230.653 219.3V231.5C230.653 233.233 231.003 234.517 231.703 235.35C232.403 236.183 233.519 236.6 235.053 236.6C236.719 236.6 238.086 236.033 239.153 234.9C240.219 233.733 240.753 232.2 240.753 230.3V219.3C240.753 218.233 241.019 217.45 241.553 216.95C242.086 216.417 242.853 216.15 243.853 216.15C244.853 216.15 245.619 216.417 246.153 216.95C246.719 217.45 247.003 218.233 247.003 219.3V238.2C247.003 240.333 245.986 241.4 243.953 241.4C242.986 241.4 242.236 241.133 241.703 240.6C241.169 240.033 240.903 239.233 240.903 238.2V234.4L241.603 235.9C240.903 237.7 239.836 239.083 238.403 240.05C237.003 241.017 235.336 241.5 233.403 241.5ZM262.908 241.5C260.774 241.5 258.891 240.983 257.258 239.95C255.658 238.917 254.408 237.45 253.508 235.55C252.608 233.617 252.158 231.35 252.158 228.75C252.158 226.117 252.608 223.867 253.508 222C254.408 220.1 255.658 218.633 257.258 217.6C258.891 216.567 260.774 216.05 262.908 216.05C264.941 216.05 266.708 216.55 268.208 217.55C269.741 218.55 270.774 219.867 271.308 221.5H270.758V208.5C270.758 207.467 271.024 206.683 271.558 206.15C272.091 205.617 272.858 205.35 273.858 205.35C274.858 205.35 275.624 205.617 276.158 206.15C276.724 206.683 277.008 207.467 277.008 208.5V238.2C277.008 239.233 276.741 240.033 276.208 240.6C275.674 241.133 274.908 241.4 273.908 241.4C272.908 241.4 272.141 241.133 271.608 240.6C271.074 240.033 270.808 239.233 270.808 238.2V234.3L271.358 235.8C270.858 237.533 269.841 238.917 268.308 239.95C266.774 240.983 264.974 241.5 262.908 241.5ZM264.658 236.75C265.891 236.75 266.974 236.45 267.908 235.85C268.841 235.25 269.558 234.367 270.058 233.2C270.591 232 270.858 230.517 270.858 228.75C270.858 226.083 270.291 224.1 269.158 222.8C268.024 221.467 266.524 220.8 264.658 220.8C263.424 220.8 262.341 221.1 261.408 221.7C260.474 222.267 259.741 223.15 259.208 224.35C258.708 225.517 258.458 226.983 258.458 228.75C258.458 231.383 259.024 233.383 260.158 234.75C261.291 236.083 262.791 236.75 264.658 236.75ZM289.688 250.4C288.955 250.4 288.355 250.2 287.888 249.8C287.422 249.433 287.138 248.933 287.038 248.3C286.972 247.667 287.088 247 287.388 246.3L290.788 238.75V241.35L281.688 220.3C281.388 219.567 281.288 218.883 281.388 218.25C281.488 217.617 281.788 217.117 282.288 216.75C282.822 216.35 283.538 216.15 284.438 216.15C285.205 216.15 285.822 216.333 286.288 216.7C286.755 217.033 287.172 217.683 287.538 218.65L294.288 235.5H292.788L299.688 218.6C300.055 217.667 300.488 217.033 300.988 216.7C301.488 216.333 302.155 216.15 302.988 216.15C303.722 216.15 304.305 216.35 304.738 216.75C305.172 217.117 305.438 217.617 305.538 218.25C305.638 218.85 305.522 219.517 305.188 220.25L293.038 248C292.605 248.933 292.138 249.567 291.638 249.9C291.138 250.233 290.488 250.4 289.688 250.4Z" fill="#0D0C0C" fill-opacity="0.87"/>
<defs>
<clipPath id="clip0_2313_17117">
<rect width="183.401" height="183.401" fill="white" transform="translate(82 8)"/>
</clipPath>
</defs>
</svg>
